# xmcd
#
# Track frame offsets:
#	150
#	17136
#	37709
#	56629
#	73748
#	102659
#	130881
#	146651
#	172215
#	198771
#	222010
#	250013
#	282431
#	307628
#	331936
#
# Disc length: 4624 seconds
#
# Revision: 1
# Processed by: cddbd v1.5.2PL0 Copyright (c) Steve Scherf et al.
# Submitted via: audiograbber 1.83.01
#
DISCID=d8120e0f
DTITLE=Willy Michl - Blues Infusion Vol. 2   The Best of Willy Michl
DYEAR=2014
DGENRE=Blues
TTITLE0=Teufelstanz `88
TTITLE1=Bahnhofsblues
TTITLE2=Morgenstund
TTITLE3=Mein Traum
TTITLE4=Fuchsblues
TTITLE5=Geh mit mir
TTITLE6=Das Haus Am Nicklassee
TTITLE7=Stoned
TTITLE8=Der Falk
TTITLE9=Katmandu `88
TTITLE10=Vision
TTITLE11=Sag Mir, Dass Es Dir Gut Geht
TTITLE12=Zirkusplatz
TTITLE13=Herbstlied
TTITLE14=Fliag Vogel Fliag
EXTD=
EXTT0=
EXTT1=
EXTT2=
EXTT3=
EXTT4=
EXTT5=
EXTT6=
EXTT7=
EXTT8=
EXTT9=
EXTT10=
EXTT11=
EXTT12=
EXTT13=
EXTT14=
PLAYORDER=
